<?xml version="1.0" encoding="UTF-8"?>
<svg width="1920px" height="1100px" viewBox="0 0 1920 1100" version="1.1" xmlns="http://www.w3.org/2000/svg" xmlns:xlink="http://www.w3.org/1999/xlink">
    <title>3</title>
    <g id="作品集" stroke="none" stroke-width="1" fill="none" fill-rule="evenodd">
        <g id="3">
            <polygon id="Fill-4" fill="#6699FF" points="0 1100 1920 1100 1920 0 0 0"></polygon>
            <path d="M845,665 L1345,665 L1345,415 L845,415 L845,665 Z M870,640 L1320,640 L1320,440 L870,440 L870,640 Z M764.4,640 C749.95,640 734.64,634.578 723.41,624.072 L737.7,606.959 C745.69,613.737 755.9,618.481 765.08,618.481 C775.46,618.481 780.561,614.415 780.561,607.806 C780.561,600.859 774.27,598.657 764.57,594.59 L750.12,588.49 C738.72,583.916 727.83,574.427 727.83,558.33 C727.83,540.03 744.16,525.458 767.3,525.458 C780.05,525.458 793.49,530.542 803.02,540.03 L790.26,555.789 C782.95,550.197 776.141,546.978 767.3,546.978 C758.621,546.978 753.18,550.705 753.18,556.974 C753.18,563.752 760.49,566.124 770.02,570.021 L784.311,575.782 C797.75,581.204 806.25,590.185 806.25,605.773 C806.25,624.072 790.94,640 764.4,640 Z M712.5,601.198 C712.5,622.548 701.44,640 676.95,640 C660.11,640 648.88,633.392 641.23,620.006 L658.24,607.467 C662.32,614.923 668.1,618.481 673.721,618.481 C682.73,618.481 687.49,613.906 687.49,599.165 L687.49,527.492 L712.5,527.492 L712.5,601.198 Z M575,665 L825,665 L825,415 L575,415 L575,665 Z M942.15625,593.40625 C966.84375,593.40625 981.84375,581.84375 987.15625,558.71875 L987.15625,558.71875 L964.65625,551.6875 C962.46875,566.6875 954.96875,574.34375 942.15625,574.65625 C926.21875,573.09375 917.78125,561.6875 916.84375,540.4375 C917.78125,519.1875 926.21875,508.09375 942.15625,507.15625 C953.40625,507.78125 960.59375,513.40625 963.71875,524.03125 L963.71875,524.03125 L986.21875,518.875 C979.34375,498.5625 964.65625,487.9375 942.15625,487 C910.28125,488.875 893.5625,506.6875 892,540.4375 C893.5625,574.1875 910.28125,591.84375 942.15625,593.40625 Z M1047.15625,593.875 C1079.34375,592 1096.375,574.34375 1098.25,540.90625 C1096.0625,506.84375 1079.03125,488.875 1047.15625,487 C1014.34375,488.25 997.15625,506.21875 995.59375,540.90625 C997.46875,574.34375 1014.65625,592 1047.15625,593.875 Z M1046.21875,574.1875 C1029.34375,573.25 1020.59375,562.15625 1019.96875,540.90625 C1020.90625,519.34375 1029.8125,508.09375 1046.6875,507.15625 C1063.25,508.09375 1071.84375,519.34375 1072.46875,540.90625 C1071.84375,562.46875 1063.09375,573.5625 1046.21875,574.1875 Z M1159.1875,593.875 C1191.375,592 1208.40625,574.34375 1210.28125,540.90625 C1208.09375,506.84375 1191.0625,488.875 1159.1875,487 C1126.375,488.25 1109.1875,506.21875 1107.625,540.90625 C1109.5,574.34375 1126.6875,592 1159.1875,593.875 Z M1158.25,574.1875 C1141.375,573.25 1132.625,562.15625 1132,540.90625 C1132.9375,519.34375 1141.84375,508.09375 1158.71875,507.15625 C1175.28125,508.09375 1183.875,519.34375 1184.5,540.90625 C1183.875,562.46875 1175.125,573.5625 1158.25,574.1875 Z M1298.875,592 L1298.875,573.71875 L1245.90625,573.71875 L1245.90625,488.40625 L1222.46875,488.40625 L1222.46875,592 L1298.875,592 Z" id="Fill-10" fill="#1D1B15"></path>
        </g>
    </g>
</svg>