<?xml version="1.0" encoding="UTF-8"?>
<svg width="1921px" height="1100px" viewBox="0 0 1921 1100" version="1.1" xmlns="http://www.w3.org/2000/svg" xmlns:xlink="http://www.w3.org/1999/xlink">
    <title>4</title>
    <g id="作品集" stroke="none" stroke-width="1" fill="none" fill-rule="evenodd">
        <g id="4" transform="translate(0.060000, 0.000000)">
            <polygon id="Fill-5" fill="#272A29" points="1.13686838e-12 1100 1919.94 1100 1919.94 0 1.13686838e-12 0"></polygon>
            <path d="M969.94,790 L1469.94,790 L1469.94,290 L969.94,290 L969.94,790 Z M994.94,765 L1444.94,765 L1444.94,315 L994.94,315 L994.94,765 Z M828.748,740 C799.83,740 769.211,729.16 746.758,708.14 L775.336,673.92 C791.325,687.47 811.738,696.96 830.109,696.96 C850.862,696.96 861.068,688.83 861.068,675.61 C861.068,661.72 848.481,657.31 829.088,649.18 L800.17,636.98 C777.377,627.83 755.603,608.85 755.603,576.66 C755.603,540.06 788.263,510.92 834.532,510.92 C860.047,510.92 886.924,521.08 905.976,540.06 L880.46,571.58 C865.831,560.39 852.223,553.96 834.532,553.96 C817.181,553.96 806.294,561.41 806.294,573.95 C806.294,587.5 820.923,592.25 839.975,600.04 L868.553,611.56 C895.429,622.41 912.44,640.37 912.44,671.55 C912.44,708.14 881.821,740 828.748,740 Z M724.94,662.4 C724.94,705.1 702.826,740 653.836,740 C620.155,740 597.701,726.78 582.392,700.01 L616.413,674.93 C624.578,689.85 636.145,696.96 647.372,696.96 C665.403,696.96 674.929,687.81 674.929,658.33 L674.929,514.98 L724.94,514.98 L724.94,662.4 Z M449.94,790 L949.94,790 L949.94,290 L449.94,290 L449.94,790 Z M1067.09625,739.40625 C1091.78375,739.40625 1106.78375,727.84375 1112.09625,704.71875 L1112.09625,704.71875 L1089.59625,697.6875 C1087.40875,712.6875 1079.90875,720.34375 1067.09625,720.65625 C1051.15875,719.09375 1042.72125,707.6875 1041.78375,686.4375 C1042.72125,665.1875 1051.15875,654.09375 1067.09625,653.15625 C1078.34625,653.78125 1085.53375,659.40625 1088.65875,670.03125 L1088.65875,670.03125 L1111.15875,664.875 C1104.28375,644.5625 1089.59625,633.9375 1067.09625,633 C1035.22125,634.875 1018.5025,652.6875 1016.94,686.4375 C1018.5025,720.1875 1035.22125,737.84375 1067.09625,739.40625 Z M1172.09625,739.875 C1204.28375,738 1221.315,720.34375 1223.19,686.90625 C1221.0025,652.84375 1203.97125,634.875 1172.09625,633 C1139.28375,634.25 1122.09625,652.21875 1120.53375,686.90625 C1122.40875,720.34375 1139.59625,738 1172.09625,739.875 Z M1171.15875,720.1875 C1154.28375,719.25 1145.53375,708.15625 1144.90875,686.90625 C1145.84625,665.34375 1154.7525,654.09375 1171.6275,653.15625 C1188.19,654.09375 1196.78375,665.34375 1197.40875,686.90625 C1196.78375,708.46875 1188.03375,719.5625 1171.15875,720.1875 Z M1284.1275,739.875 C1316.315,738 1333.34625,720.34375 1335.22125,686.90625 C1333.03375,652.84375 1316.0025,634.875 1284.1275,633 C1251.315,634.25 1234.1275,652.21875 1232.565,686.90625 C1234.44,720.34375 1251.6275,738 1284.1275,739.875 Z M1283.19,720.1875 C1266.315,719.25 1257.565,708.15625 1256.94,686.90625 C1257.8775,665.34375 1266.78375,654.09375 1283.65875,653.15625 C1300.22125,654.09375 1308.815,665.34375 1309.44,686.90625 C1308.815,708.46875 1300.065,719.5625 1283.19,720.1875 Z M1423.815,738 L1423.815,719.71875 L1370.84625,719.71875 L1370.84625,634.40625 L1347.40875,634.40625 L1347.40875,738 L1423.815,738 Z" id="Fill-11" fill="#FFFFFE"></path>
        </g>
    </g>
</svg>