<svg xmlns="http://www.w3.org/2000/svg" xmlns:xlink="http://www.w3.org/1999/xlink" width="1920" height="1100" version="1.1" viewBox="0 0 1920 1100"><title>2</title><g id="作品集" fill="none" fill-rule="evenodd" stroke="none" stroke-width="1"><g id="2"><polygon id="Fill-3" fill="#69F" points="0 1100 1920 1100 1920 0 0 0"/><path id="Fill-9" fill="#1D1B15" d="M710,925 L1210,925 L1210,675 L710,675 L710,925 Z M735,900 L1185,900 L1185,700 L735,700 L735,900 Z M1088.81,605 C1059.89,605 1029.27,594.156 1006.82,573.145 L1035.4,538.918 C1051.39,552.473 1071.8,561.962 1090.17,561.962 C1110.92,561.962 1121.13,553.829 1121.13,540.612 C1121.13,526.719 1108.54,522.313 1089.15,514.18 L1060.23,501.98 C1037.44,492.831 1015.66,473.853 1015.66,441.66 C1015.66,405.061 1048.32,375.917 1094.59,375.917 C1120.11,375.917 1146.98,386.083 1166.04,405.061 L1140.52,436.577 C1125.89,425.393 1112.28,418.955 1094.59,418.955 C1077.24,418.955 1066.35,426.41 1066.35,438.949 C1066.35,452.504 1080.98,457.248 1100.04,465.042 L1128.61,476.564 C1155.49,487.408 1172.5,505.37 1172.5,536.546 C1172.5,573.145 1141.88,605 1088.81,605 Z M985,527.396 C985,570.095 962.89,605 913.9,605 C880.22,605 857.76,591.783 842.45,565.012 L876.47,539.935 C884.64,554.846 896.21,561.962 907.43,561.962 C925.46,561.962 934.99,552.813 934.99,523.33 L934.99,379.983 L985,379.983 L985,527.396 Z M912.15625,747 C944.03125,748.875 961.0625,766.84375 963.25,800.90625 C961.375,834.34375 944.34375,852 912.15625,853.875 C879.65625,852 862.46875,834.34375 860.59375,800.90625 C862.15625,766.21875 879.34375,748.25 912.15625,747 Z M1024.1875,747 C1056.0625,748.875 1073.09375,766.84375 1075.28125,800.90625 C1073.40625,834.34375 1056.375,852 1024.1875,853.875 C991.6875,852 974.5,834.34375 972.625,800.90625 C974.1875,766.21875 991.375,748.25 1024.1875,747 Z M807.15625,747 C829.65625,747.9375 844.34375,758.5625 851.21875,778.875 L851.21875,778.875 L828.71875,784.03125 L828.586191,783.591435 C825.393314,773.250965 818.25,767.772569 807.15625,767.15625 C791.21875,768.09375 782.78125,779.1875 781.84375,800.4375 C782.78125,821.6875 791.21875,833.09375 807.15625,834.65625 C819.96875,834.34375 827.46875,826.6875 829.65625,811.6875 L829.65625,811.6875 L852.15625,818.71875 L851.993969,819.409031 C846.542781,842.073844 831.596875,853.40625 807.15625,853.40625 C775.28125,851.84375 758.5625,834.1875 757,800.4375 C758.5625,766.6875 775.28125,748.875 807.15625,747 Z M1110.90625,748.40625 L1110.90625,833.71875 L1163.875,833.71875 L1163.875,852 L1087.46875,852 L1087.46875,748.40625 L1110.90625,748.40625 Z M911.6875,767.15625 C894.8125,768.09375 885.90625,779.34375 884.96875,800.90625 C885.59375,822.15625 894.34375,833.25 911.21875,834.1875 C928.09375,833.5625 936.84375,822.46875 937.46875,800.90625 C936.84375,779.34375 928.25,768.09375 911.6875,767.15625 Z M1023.71875,767.15625 C1006.84375,768.09375 997.9375,779.34375 997,800.90625 C997.625,822.15625 1006.375,833.25 1023.25,834.1875 C1040.125,833.5625 1048.875,822.46875 1049.5,800.90625 C1048.875,779.34375 1040.28125,768.09375 1023.71875,767.15625 Z M1210,155 L1210,655 L710,655 L710,155 L1210,155 Z"/></g></g></svg>