<?xml version="1.0" encoding="UTF-8"?>
<svg width="1920px" height="1100px" viewBox="0 0 1920 1100" version="1.1" xmlns="http://www.w3.org/2000/svg" xmlns:xlink="http://www.w3.org/1999/xlink">
    <title>1</title>
    <g id="作品集" stroke="none" stroke-width="1" fill="none" fill-rule="evenodd">
        <g id="1">
            <polygon id="Fill-1" fill="#6699FF" points="1.13686838e-12 1100 1919.94 1100 1919.94 0 1.13686838e-12 0"></polygon>
            <path d="M969.94,790 L1469.94,790 L1469.94,290 L969.94,290 L969.94,790 Z M994.94,765 L1444.94,765 L1444.94,315 L994.94,315 L994.94,765 Z M828.748,740 C799.83,740 769.211,729.156 746.758,708.145 L775.336,673.918 C791.325,687.473 811.738,696.962 830.109,696.962 C850.862,696.962 861.068,688.829 861.068,675.612 C861.068,661.719 848.481,657.313 829.088,649.18 L800.17,636.98 C777.377,627.831 755.603,608.853 755.603,576.66 C755.603,540.061 788.263,510.917 834.532,510.917 C860.047,510.917 886.924,521.083 905.976,540.061 L880.46,571.577 C865.831,560.393 852.223,553.955 834.532,553.955 C817.181,553.955 806.294,561.41 806.294,573.949 C806.294,587.504 820.923,592.248 839.975,600.042 L868.553,611.564 C895.429,622.408 912.44,640.37 912.44,671.546 C912.44,708.145 881.821,740 828.748,740 Z M724.94,662.396 C724.94,705.095 702.826,740 653.836,740 C620.155,740 597.701,726.783 582.392,700.012 L616.413,674.935 C624.578,689.846 636.145,696.962 647.372,696.962 C665.403,696.962 674.929,687.813 674.929,658.33 L674.929,514.983 L724.94,514.983 L724.94,662.396 Z M949.94,290 L949.94,790 L449.94,790 L449.94,290 L949.94,290 Z M1170.315,635.84375 C1202.19,637.71875 1219.22125,655.6875 1221.40875,689.75 C1219.53375,723.1875 1202.5025,740.84375 1170.315,742.71875 C1137.815,740.84375 1120.6275,723.1875 1118.7525,689.75 C1120.315,655.0625 1137.5025,637.09375 1170.315,635.84375 Z M1282.34625,635.84375 C1314.22125,637.71875 1331.2525,655.6875 1333.44,689.75 C1331.565,723.1875 1314.53375,740.84375 1282.34625,742.71875 C1249.84625,740.84375 1232.65875,723.1875 1230.78375,689.75 C1232.34625,655.0625 1249.53375,637.09375 1282.34625,635.84375 Z M1065.315,635.84375 C1087.815,636.78125 1102.5025,647.40625 1109.3775,667.71875 L1109.3775,667.71875 L1086.8775,672.875 L1086.74494,672.435185 C1083.55206,662.094715 1076.40875,656.616319 1065.315,656 C1049.3775,656.9375 1040.94,668.03125 1040.0025,689.28125 C1040.94,710.53125 1049.3775,721.9375 1065.315,723.5 C1078.1275,723.1875 1085.6275,715.53125 1087.815,700.53125 L1087.815,700.53125 L1110.315,707.5625 L1110.15272,708.252781 C1104.70153,730.917594 1089.75563,742.25 1065.315,742.25 C1033.44,740.6875 1016.72125,723.03125 1015.15875,689.28125 C1016.72125,655.53125 1033.44,637.71875 1065.315,635.84375 Z M1369.065,637.25 L1369.065,722.5625 L1422.03375,722.5625 L1422.03375,740.84375 L1345.6275,740.84375 L1345.6275,637.25 L1369.065,637.25 Z M1169.84625,656 C1152.97125,656.9375 1144.065,668.1875 1143.1275,689.75 C1143.7525,711 1152.5025,722.09375 1169.3775,723.03125 C1186.2525,722.40625 1195.0025,711.3125 1195.6275,689.75 C1195.0025,668.1875 1186.40875,656.9375 1169.84625,656 Z M1281.8775,656 C1265.0025,656.9375 1256.09625,668.1875 1255.15875,689.75 C1255.78375,711 1264.53375,722.09375 1281.40875,723.03125 C1298.28375,722.40625 1307.03375,711.3125 1307.65875,689.75 C1307.03375,668.1875 1298.44,656.9375 1281.8775,656 Z" id="Fill-8" fill="#1D1B15"></path>
        </g>
    </g>
</svg>