<?xml version="1.0" encoding="UTF-8"?>
<svg width="1920px" height="1100px" viewBox="0 0 1920 1100" version="1.1" xmlns="http://www.w3.org/2000/svg" xmlns:xlink="http://www.w3.org/1999/xlink">
    <title>6</title>
    <g id="作品集" stroke="none" stroke-width="1" fill="none" fill-rule="evenodd">
        <g id="6">
            <polygon id="Fill-7" fill="#272A29" points="0 1100 1920 1100 1920 0 0 0"></polygon>
            <path d="M845,665 L1345,665 L1345,415 L845,415 L845,665 Z M870,640 L1320,640 L1320,440 L870,440 L870,640 Z M764.4,640 C749.95,640 734.64,634.58 723.41,624.07 L737.7,606.96 C745.69,613.74 755.9,618.48 765.08,618.48 C775.46,618.48 780.561,614.41 780.561,607.81 C780.561,600.86 774.27,598.66 764.57,594.59 L750.12,588.49 C738.72,583.92 727.83,574.43 727.83,558.33 C727.83,540.03 744.16,525.46 767.3,525.46 C780.05,525.46 793.49,530.54 803.02,540.03 L790.26,555.79 C782.95,550.2 776.141,546.98 767.3,546.98 C758.621,546.98 753.18,550.71 753.18,556.97 C753.18,563.75 760.49,566.12 770.02,570.02 L784.311,575.78 C797.75,581.2 806.25,590.18 806.25,605.77 C806.25,624.07 790.94,640 764.4,640 Z M712.5,601.2 C712.5,622.55 701.44,640 676.95,640 C660.11,640 648.88,633.39 641.23,620.01 L658.24,607.47 C662.32,614.92 668.1,618.48 673.721,618.48 C682.73,618.48 687.49,613.91 687.49,599.17 L687.49,527.49 L712.5,527.49 L712.5,601.2 Z M825,415 L825,665 L575,665 L575,415 L825,415 Z M1047.15625,487 C1079.03125,488.875 1096.0625,506.84375 1098.25,540.90625 C1096.375,574.34375 1079.34375,592 1047.15625,593.875 C1014.65625,592 997.46875,574.34375 995.59375,540.90625 C997.15625,506.21875 1014.34375,488.25 1047.15625,487 Z M1159.1875,487 C1191.0625,488.875 1208.09375,506.84375 1210.28125,540.90625 C1208.40625,574.34375 1191.375,592 1159.1875,593.875 C1126.6875,592 1109.5,574.34375 1107.625,540.90625 C1109.1875,506.21875 1126.375,488.25 1159.1875,487 Z M942.15625,487 C964.65625,487.9375 979.34375,498.5625 986.21875,518.875 L986.21875,518.875 L963.71875,524.03125 L963.586191,523.591435 C960.393314,513.250965 953.25,507.772569 942.15625,507.15625 C926.21875,508.09375 917.78125,519.1875 916.84375,540.4375 C917.78125,561.6875 926.21875,573.09375 942.15625,574.65625 C954.96875,574.34375 962.46875,566.6875 964.65625,551.6875 L964.65625,551.6875 L987.15625,558.71875 L986.993969,559.409031 C981.542781,582.073844 966.596875,593.40625 942.15625,593.40625 C910.28125,591.84375 893.5625,574.1875 892,540.4375 C893.5625,506.6875 910.28125,488.875 942.15625,487 Z M1245.90625,488.40625 L1245.90625,573.71875 L1298.875,573.71875 L1298.875,592 L1222.46875,592 L1222.46875,488.40625 L1245.90625,488.40625 Z M1046.6875,507.15625 C1029.8125,508.09375 1020.90625,519.34375 1019.96875,540.90625 C1020.59375,562.15625 1029.34375,573.25 1046.21875,574.1875 C1063.09375,573.5625 1071.84375,562.46875 1072.46875,540.90625 C1071.84375,519.34375 1063.25,508.09375 1046.6875,507.15625 Z M1158.71875,507.15625 C1141.84375,508.09375 1132.9375,519.34375 1132,540.90625 C1132.625,562.15625 1141.375,573.25 1158.25,574.1875 C1175.125,573.5625 1183.875,562.46875 1184.5,540.90625 C1183.875,519.34375 1175.28125,508.09375 1158.71875,507.15625 Z" id="Fill-13" fill="#FFFFFE"></path>
        </g>
    </g>
</svg>