<svg xmlns="http://www.w3.org/2000/svg" xmlns:xlink="http://www.w3.org/1999/xlink" width="1920" height="1100" version="1.1" viewBox="0 0 1920 1100"><title>8</title><g id="作品集" fill="none" fill-rule="evenodd" stroke="none" stroke-width="1"><g id="8"><rect id="矩形" width="1920" height="1100" x="0" y="0" fill="#FFF" fill-opacity="0"/><path id="Fill-15" fill="#272A29" d="M710,925 L1210,925 L1210,675 L710,675 L710,925 Z M735,900 L1185,900 L1185,700 L735,700 L735,900 Z M1088.81,605 C1059.89,605 1029.27,594.16 1006.82,573.14 L1035.4,538.92 C1051.39,552.47 1071.8,561.96 1090.17,561.96 C1110.92,561.96 1121.13,553.83 1121.13,540.61 C1121.13,526.72 1108.54,522.31 1089.15,514.18 L1060.23,501.98 C1037.44,492.83 1015.66,473.85 1015.66,441.66 C1015.66,405.06 1048.32,375.92 1094.59,375.92 C1120.11,375.92 1146.98,386.08 1166.04,405.06 L1140.52,436.58 C1125.89,425.39 1112.28,418.96 1094.59,418.96 C1077.24,418.96 1066.35,426.41 1066.35,438.95 C1066.35,452.5 1080.98,457.25 1100.04,465.04 L1128.61,476.56 C1155.49,487.41 1172.5,505.37 1172.5,536.55 C1172.5,573.14 1141.88,605 1088.81,605 Z M985,527.4 C985,570.1 962.89,605 913.9,605 C880.22,605 857.76,591.78 842.45,565.01 L876.47,539.93 C884.64,554.85 896.21,561.96 907.43,561.96 C925.46,561.96 934.99,552.81 934.99,523.33 L934.99,379.98 L985,379.98 L985,527.4 Z M710,655 L1210,655 L1210,155 L710,155 L710,655 Z M807.15625,853.40625 C831.84375,853.40625 846.84375,841.84375 852.15625,818.71875 L852.15625,818.71875 L829.65625,811.6875 C827.46875,826.6875 819.96875,834.34375 807.15625,834.65625 C791.21875,833.09375 782.78125,821.6875 781.84375,800.4375 C782.78125,779.1875 791.21875,768.09375 807.15625,767.15625 C818.40625,767.78125 825.59375,773.40625 828.71875,784.03125 L828.71875,784.03125 L851.21875,778.875 C844.34375,758.5625 829.65625,747.9375 807.15625,747 C775.28125,748.875 758.5625,766.6875 757,800.4375 C758.5625,834.1875 775.28125,851.84375 807.15625,853.40625 Z M912.15625,853.875 C944.34375,852 961.375,834.34375 963.25,800.90625 C961.0625,766.84375 944.03125,748.875 912.15625,747 C879.34375,748.25 862.15625,766.21875 860.59375,800.90625 C862.46875,834.34375 879.65625,852 912.15625,853.875 Z M911.21875,834.1875 C894.34375,833.25 885.59375,822.15625 884.96875,800.90625 C885.90625,779.34375 894.8125,768.09375 911.6875,767.15625 C928.25,768.09375 936.84375,779.34375 937.46875,800.90625 C936.84375,822.46875 928.09375,833.5625 911.21875,834.1875 Z M1024.1875,853.875 C1056.375,852 1073.40625,834.34375 1075.28125,800.90625 C1073.09375,766.84375 1056.0625,748.875 1024.1875,747 C991.375,748.25 974.1875,766.21875 972.625,800.90625 C974.5,834.34375 991.6875,852 1024.1875,853.875 Z M1023.25,834.1875 C1006.375,833.25 997.625,822.15625 997,800.90625 C997.9375,779.34375 1006.84375,768.09375 1023.71875,767.15625 C1040.28125,768.09375 1048.875,779.34375 1049.5,800.90625 C1048.875,822.46875 1040.125,833.5625 1023.25,834.1875 Z M1163.875,852 L1163.875,833.71875 L1110.90625,833.71875 L1110.90625,748.40625 L1087.46875,748.40625 L1087.46875,852 L1163.875,852 Z"/></g></g></svg>