<svg xmlns="http://www.w3.org/2000/svg" xmlns:xlink="http://www.w3.org/1999/xlink" width="1920" height="1100" version="1.1" viewBox="0 0 1920 1100"><title>7</title><g id="作品集" fill="none" fill-rule="evenodd" stroke="none" stroke-width="1"><g id="7"><rect id="矩形" width="1920" height="1100" x="0" y="0" fill="#FFF" opacity="0"/><path id="Fill-14" fill="#272A29" d="M970,790 L1470,790 L1470,290 L970,290 L970,790 Z M995,765 L1445,765 L1445,315 L995,315 L995,765 Z M828.808,740 C799.89,740 769.271,729.16 746.818,708.14 L775.396,673.92 C791.385,687.47 811.798,696.96 830.169,696.96 C850.922,696.96 861.128,688.83 861.128,675.61 C861.128,661.72 848.541,657.31 829.148,649.18 L800.23,636.98 C777.437,627.83 755.663,608.85 755.663,576.66 C755.663,540.06 788.323,510.92 834.592,510.92 C860.107,510.92 886.984,521.08 906.036,540.06 L880.52,571.58 C865.891,560.39 852.283,553.96 834.592,553.96 C817.241,553.96 806.354,561.41 806.354,573.95 C806.354,587.5 820.983,592.25 840.035,600.04 L868.613,611.56 C895.489,622.41 912.5,640.37 912.5,671.55 C912.5,708.14 881.881,740 828.808,740 Z M725,662.4 C725,705.1 702.886,740 653.896,740 C620.215,740 597.761,726.78 582.452,700.01 L616.473,674.93 C624.638,689.85 636.205,696.96 647.432,696.96 C665.463,696.96 674.989,687.81 674.989,658.33 L674.989,514.98 L725,514.98 L725,662.4 Z M450,790 L950,790 L950,290 L450,290 L450,790 Z M1067.15625,739.40625 C1091.84375,739.40625 1106.84375,727.84375 1112.15625,704.71875 L1112.15625,704.71875 L1089.65625,697.6875 C1087.46875,712.6875 1079.96875,720.34375 1067.15625,720.65625 C1051.21875,719.09375 1042.78125,707.6875 1041.84375,686.4375 C1042.78125,665.1875 1051.21875,654.09375 1067.15625,653.15625 C1078.40625,653.78125 1085.59375,659.40625 1088.71875,670.03125 L1088.71875,670.03125 L1111.21875,664.875 C1104.34375,644.5625 1089.65625,633.9375 1067.15625,633 C1035.28125,634.875 1018.5625,652.6875 1017,686.4375 C1018.5625,720.1875 1035.28125,737.84375 1067.15625,739.40625 Z M1172.15625,739.875 C1204.34375,738 1221.375,720.34375 1223.25,686.90625 C1221.0625,652.84375 1204.03125,634.875 1172.15625,633 C1139.34375,634.25 1122.15625,652.21875 1120.59375,686.90625 C1122.46875,720.34375 1139.65625,738 1172.15625,739.875 Z M1171.21875,720.1875 C1154.34375,719.25 1145.59375,708.15625 1144.96875,686.90625 C1145.90625,665.34375 1154.8125,654.09375 1171.6875,653.15625 C1188.25,654.09375 1196.84375,665.34375 1197.46875,686.90625 C1196.84375,708.46875 1188.09375,719.5625 1171.21875,720.1875 Z M1284.1875,739.875 C1316.375,738 1333.40625,720.34375 1335.28125,686.90625 C1333.09375,652.84375 1316.0625,634.875 1284.1875,633 C1251.375,634.25 1234.1875,652.21875 1232.625,686.90625 C1234.5,720.34375 1251.6875,738 1284.1875,739.875 Z M1283.25,720.1875 C1266.375,719.25 1257.625,708.15625 1257,686.90625 C1257.9375,665.34375 1266.84375,654.09375 1283.71875,653.15625 C1300.28125,654.09375 1308.875,665.34375 1309.5,686.90625 C1308.875,708.46875 1300.125,719.5625 1283.25,720.1875 Z M1423.875,738 L1423.875,719.71875 L1370.90625,719.71875 L1370.90625,634.40625 L1347.46875,634.40625 L1347.46875,738 L1423.875,738 Z"/></g></g></svg>