<?xml version="1.0" encoding="UTF-8"?>
<svg width="5800px" height="3300px" viewBox="0 0 5800 3300" version="1.1" xmlns="http://www.w3.org/2000/svg" xmlns:xlink="http://www.w3.org/1999/xlink">
    <title>编组 16</title>
    <g id="作品集" stroke="none" stroke-width="1" fill="none" fill-rule="evenodd">
        <g id="编组-16">
            <g id="1">
                <polygon id="Fill-1" fill="#6699FF" points="1.13686838e-12 1100 1919.94 1100 1919.94 0 1.13686838e-12 0"></polygon>
                <path d="M969.94,790 L1469.94,790 L1469.94,290 L969.94,290 L969.94,790 Z M994.94,765 L1444.94,765 L1444.94,315 L994.94,315 L994.94,765 Z M828.748,740 C799.83,740 769.211,729.156 746.758,708.145 L775.336,673.918 C791.325,687.473 811.738,696.962 830.109,696.962 C850.862,696.962 861.068,688.829 861.068,675.612 C861.068,661.719 848.481,657.313 829.088,649.18 L800.17,636.98 C777.377,627.831 755.603,608.853 755.603,576.66 C755.603,540.061 788.263,510.917 834.532,510.917 C860.047,510.917 886.924,521.083 905.976,540.061 L880.46,571.577 C865.831,560.393 852.223,553.955 834.532,553.955 C817.181,553.955 806.294,561.41 806.294,573.949 C806.294,587.504 820.923,592.248 839.975,600.042 L868.553,611.564 C895.429,622.408 912.44,640.37 912.44,671.546 C912.44,708.145 881.821,740 828.748,740 Z M724.94,662.396 C724.94,705.095 702.826,740 653.836,740 C620.155,740 597.701,726.783 582.392,700.012 L616.413,674.935 C624.578,689.846 636.145,696.962 647.372,696.962 C665.403,696.962 674.929,687.813 674.929,658.33 L674.929,514.983 L724.94,514.983 L724.94,662.396 Z M949.94,290 L949.94,790 L449.94,790 L449.94,290 L949.94,290 Z M1170.315,635.84375 C1202.19,637.71875 1219.22125,655.6875 1221.40875,689.75 C1219.53375,723.1875 1202.5025,740.84375 1170.315,742.71875 C1137.815,740.84375 1120.6275,723.1875 1118.7525,689.75 C1120.315,655.0625 1137.5025,637.09375 1170.315,635.84375 Z M1282.34625,635.84375 C1314.22125,637.71875 1331.2525,655.6875 1333.44,689.75 C1331.565,723.1875 1314.53375,740.84375 1282.34625,742.71875 C1249.84625,740.84375 1232.65875,723.1875 1230.78375,689.75 C1232.34625,655.0625 1249.53375,637.09375 1282.34625,635.84375 Z M1065.315,635.84375 C1087.815,636.78125 1102.5025,647.40625 1109.3775,667.71875 L1109.3775,667.71875 L1086.8775,672.875 L1086.74494,672.435185 C1083.55206,662.094715 1076.40875,656.616319 1065.315,656 C1049.3775,656.9375 1040.94,668.03125 1040.0025,689.28125 C1040.94,710.53125 1049.3775,721.9375 1065.315,723.5 C1078.1275,723.1875 1085.6275,715.53125 1087.815,700.53125 L1087.815,700.53125 L1110.315,707.5625 L1110.15272,708.252781 C1104.70153,730.917594 1089.75563,742.25 1065.315,742.25 C1033.44,740.6875 1016.72125,723.03125 1015.15875,689.28125 C1016.72125,655.53125 1033.44,637.71875 1065.315,635.84375 Z M1369.065,637.25 L1369.065,722.5625 L1422.03375,722.5625 L1422.03375,740.84375 L1345.6275,740.84375 L1345.6275,637.25 L1369.065,637.25 Z M1169.84625,656 C1152.97125,656.9375 1144.065,668.1875 1143.1275,689.75 C1143.7525,711 1152.5025,722.09375 1169.3775,723.03125 C1186.2525,722.40625 1195.0025,711.3125 1195.6275,689.75 C1195.0025,668.1875 1186.40875,656.9375 1169.84625,656 Z M1281.8775,656 C1265.0025,656.9375 1256.09625,668.1875 1255.15875,689.75 C1255.78375,711 1264.53375,722.09375 1281.40875,723.03125 C1298.28375,722.40625 1307.03375,711.3125 1307.65875,689.75 C1307.03375,668.1875 1298.44,656.9375 1281.8775,656 Z" id="Fill-8" fill="#1D1B15"></path>
            </g>
            <g id="2" transform="translate(1940.000000, 0.000000)">
                <polygon id="Fill-3" fill="#6699FF" points="0 1100 1920 1100 1920 0 0 0"></polygon>
                <path d="M710,925 L1210,925 L1210,675 L710,675 L710,925 Z M735,900 L1185,900 L1185,700 L735,700 L735,900 Z M1088.81,605 C1059.89,605 1029.27,594.156 1006.82,573.145 L1035.4,538.918 C1051.39,552.473 1071.8,561.962 1090.17,561.962 C1110.92,561.962 1121.13,553.829 1121.13,540.612 C1121.13,526.719 1108.54,522.313 1089.15,514.18 L1060.23,501.98 C1037.44,492.831 1015.66,473.853 1015.66,441.66 C1015.66,405.061 1048.32,375.917 1094.59,375.917 C1120.11,375.917 1146.98,386.083 1166.04,405.061 L1140.52,436.577 C1125.89,425.393 1112.28,418.955 1094.59,418.955 C1077.24,418.955 1066.35,426.41 1066.35,438.949 C1066.35,452.504 1080.98,457.248 1100.04,465.042 L1128.61,476.564 C1155.49,487.408 1172.5,505.37 1172.5,536.546 C1172.5,573.145 1141.88,605 1088.81,605 Z M985,527.396 C985,570.095 962.89,605 913.9,605 C880.22,605 857.76,591.783 842.45,565.012 L876.47,539.935 C884.64,554.846 896.21,561.962 907.43,561.962 C925.46,561.962 934.99,552.813 934.99,523.33 L934.99,379.983 L985,379.983 L985,527.396 Z M912.15625,747 C944.03125,748.875 961.0625,766.84375 963.25,800.90625 C961.375,834.34375 944.34375,852 912.15625,853.875 C879.65625,852 862.46875,834.34375 860.59375,800.90625 C862.15625,766.21875 879.34375,748.25 912.15625,747 Z M1024.1875,747 C1056.0625,748.875 1073.09375,766.84375 1075.28125,800.90625 C1073.40625,834.34375 1056.375,852 1024.1875,853.875 C991.6875,852 974.5,834.34375 972.625,800.90625 C974.1875,766.21875 991.375,748.25 1024.1875,747 Z M807.15625,747 C829.65625,747.9375 844.34375,758.5625 851.21875,778.875 L851.21875,778.875 L828.71875,784.03125 L828.586191,783.591435 C825.393314,773.250965 818.25,767.772569 807.15625,767.15625 C791.21875,768.09375 782.78125,779.1875 781.84375,800.4375 C782.78125,821.6875 791.21875,833.09375 807.15625,834.65625 C819.96875,834.34375 827.46875,826.6875 829.65625,811.6875 L829.65625,811.6875 L852.15625,818.71875 L851.993969,819.409031 C846.542781,842.073844 831.596875,853.40625 807.15625,853.40625 C775.28125,851.84375 758.5625,834.1875 757,800.4375 C758.5625,766.6875 775.28125,748.875 807.15625,747 Z M1110.90625,748.40625 L1110.90625,833.71875 L1163.875,833.71875 L1163.875,852 L1087.46875,852 L1087.46875,748.40625 L1110.90625,748.40625 Z M911.6875,767.15625 C894.8125,768.09375 885.90625,779.34375 884.96875,800.90625 C885.59375,822.15625 894.34375,833.25 911.21875,834.1875 C928.09375,833.5625 936.84375,822.46875 937.46875,800.90625 C936.84375,779.34375 928.25,768.09375 911.6875,767.15625 Z M1023.71875,767.15625 C1006.84375,768.09375 997.9375,779.34375 997,800.90625 C997.625,822.15625 1006.375,833.25 1023.25,834.1875 C1040.125,833.5625 1048.875,822.46875 1049.5,800.90625 C1048.875,779.34375 1040.28125,768.09375 1023.71875,767.15625 Z M1210,155 L1210,655 L710,655 L710,155 L1210,155 Z" id="Fill-9" fill="#1D1B15"></path>
            </g>
            <g id="3" transform="translate(3880.000000, 0.000000)">
                <polygon id="Fill-4" fill="#6699FF" points="0 1100 1920 1100 1920 0 0 0"></polygon>
                <path d="M845,665 L1345,665 L1345,415 L845,415 L845,665 Z M870,640 L1320,640 L1320,440 L870,440 L870,640 Z M764.4,640 C749.95,640 734.64,634.578 723.41,624.072 L737.7,606.959 C745.69,613.737 755.9,618.481 765.08,618.481 C775.46,618.481 780.561,614.415 780.561,607.806 C780.561,600.859 774.27,598.657 764.57,594.59 L750.12,588.49 C738.72,583.916 727.83,574.427 727.83,558.33 C727.83,540.03 744.16,525.458 767.3,525.458 C780.05,525.458 793.49,530.542 803.02,540.03 L790.26,555.789 C782.95,550.197 776.141,546.978 767.3,546.978 C758.621,546.978 753.18,550.705 753.18,556.974 C753.18,563.752 760.49,566.124 770.02,570.021 L784.311,575.782 C797.75,581.204 806.25,590.185 806.25,605.773 C806.25,624.072 790.94,640 764.4,640 Z M712.5,601.198 C712.5,622.548 701.44,640 676.95,640 C660.11,640 648.88,633.392 641.23,620.006 L658.24,607.467 C662.32,614.923 668.1,618.481 673.721,618.481 C682.73,618.481 687.49,613.906 687.49,599.165 L687.49,527.492 L712.5,527.492 L712.5,601.198 Z M575,665 L825,665 L825,415 L575,415 L575,665 Z M942.15625,593.40625 C966.84375,593.40625 981.84375,581.84375 987.15625,558.71875 L987.15625,558.71875 L964.65625,551.6875 C962.46875,566.6875 954.96875,574.34375 942.15625,574.65625 C926.21875,573.09375 917.78125,561.6875 916.84375,540.4375 C917.78125,519.1875 926.21875,508.09375 942.15625,507.15625 C953.40625,507.78125 960.59375,513.40625 963.71875,524.03125 L963.71875,524.03125 L986.21875,518.875 C979.34375,498.5625 964.65625,487.9375 942.15625,487 C910.28125,488.875 893.5625,506.6875 892,540.4375 C893.5625,574.1875 910.28125,591.84375 942.15625,593.40625 Z M1047.15625,593.875 C1079.34375,592 1096.375,574.34375 1098.25,540.90625 C1096.0625,506.84375 1079.03125,488.875 1047.15625,487 C1014.34375,488.25 997.15625,506.21875 995.59375,540.90625 C997.46875,574.34375 1014.65625,592 1047.15625,593.875 Z M1046.21875,574.1875 C1029.34375,573.25 1020.59375,562.15625 1019.96875,540.90625 C1020.90625,519.34375 1029.8125,508.09375 1046.6875,507.15625 C1063.25,508.09375 1071.84375,519.34375 1072.46875,540.90625 C1071.84375,562.46875 1063.09375,573.5625 1046.21875,574.1875 Z M1159.1875,593.875 C1191.375,592 1208.40625,574.34375 1210.28125,540.90625 C1208.09375,506.84375 1191.0625,488.875 1159.1875,487 C1126.375,488.25 1109.1875,506.21875 1107.625,540.90625 C1109.5,574.34375 1126.6875,592 1159.1875,593.875 Z M1158.25,574.1875 C1141.375,573.25 1132.625,562.15625 1132,540.90625 C1132.9375,519.34375 1141.84375,508.09375 1158.71875,507.15625 C1175.28125,508.09375 1183.875,519.34375 1184.5,540.90625 C1183.875,562.46875 1175.125,573.5625 1158.25,574.1875 Z M1298.875,592 L1298.875,573.71875 L1245.90625,573.71875 L1245.90625,488.40625 L1222.46875,488.40625 L1222.46875,592 L1298.875,592 Z" id="Fill-10" fill="#1D1B15"></path>
            </g>
            <g id="4" transform="translate(0.060000, 1100.000000)">
                <polygon id="Fill-5" fill="#272A29" points="1.13686838e-12 1100 1919.94 1100 1919.94 0 1.13686838e-12 0"></polygon>
                <path d="M969.94,790 L1469.94,790 L1469.94,290 L969.94,290 L969.94,790 Z M994.94,765 L1444.94,765 L1444.94,315 L994.94,315 L994.94,765 Z M828.748,740 C799.83,740 769.211,729.16 746.758,708.14 L775.336,673.92 C791.325,687.47 811.738,696.96 830.109,696.96 C850.862,696.96 861.068,688.83 861.068,675.61 C861.068,661.72 848.481,657.31 829.088,649.18 L800.17,636.98 C777.377,627.83 755.603,608.85 755.603,576.66 C755.603,540.06 788.263,510.92 834.532,510.92 C860.047,510.92 886.924,521.08 905.976,540.06 L880.46,571.58 C865.831,560.39 852.223,553.96 834.532,553.96 C817.181,553.96 806.294,561.41 806.294,573.95 C806.294,587.5 820.923,592.25 839.975,600.04 L868.553,611.56 C895.429,622.41 912.44,640.37 912.44,671.55 C912.44,708.14 881.821,740 828.748,740 Z M724.94,662.4 C724.94,705.1 702.826,740 653.836,740 C620.155,740 597.701,726.78 582.392,700.01 L616.413,674.93 C624.578,689.85 636.145,696.96 647.372,696.96 C665.403,696.96 674.929,687.81 674.929,658.33 L674.929,514.98 L724.94,514.98 L724.94,662.4 Z M449.94,790 L949.94,790 L949.94,290 L449.94,290 L449.94,790 Z M1067.09625,739.40625 C1091.78375,739.40625 1106.78375,727.84375 1112.09625,704.71875 L1112.09625,704.71875 L1089.59625,697.6875 C1087.40875,712.6875 1079.90875,720.34375 1067.09625,720.65625 C1051.15875,719.09375 1042.72125,707.6875 1041.78375,686.4375 C1042.72125,665.1875 1051.15875,654.09375 1067.09625,653.15625 C1078.34625,653.78125 1085.53375,659.40625 1088.65875,670.03125 L1088.65875,670.03125 L1111.15875,664.875 C1104.28375,644.5625 1089.59625,633.9375 1067.09625,633 C1035.22125,634.875 1018.5025,652.6875 1016.94,686.4375 C1018.5025,720.1875 1035.22125,737.84375 1067.09625,739.40625 Z M1172.09625,739.875 C1204.28375,738 1221.315,720.34375 1223.19,686.90625 C1221.0025,652.84375 1203.97125,634.875 1172.09625,633 C1139.28375,634.25 1122.09625,652.21875 1120.53375,686.90625 C1122.40875,720.34375 1139.59625,738 1172.09625,739.875 Z M1171.15875,720.1875 C1154.28375,719.25 1145.53375,708.15625 1144.90875,686.90625 C1145.84625,665.34375 1154.7525,654.09375 1171.6275,653.15625 C1188.19,654.09375 1196.78375,665.34375 1197.40875,686.90625 C1196.78375,708.46875 1188.03375,719.5625 1171.15875,720.1875 Z M1284.1275,739.875 C1316.315,738 1333.34625,720.34375 1335.22125,686.90625 C1333.03375,652.84375 1316.0025,634.875 1284.1275,633 C1251.315,634.25 1234.1275,652.21875 1232.565,686.90625 C1234.44,720.34375 1251.6275,738 1284.1275,739.875 Z M1283.19,720.1875 C1266.315,719.25 1257.565,708.15625 1256.94,686.90625 C1257.8775,665.34375 1266.78375,654.09375 1283.65875,653.15625 C1300.22125,654.09375 1308.815,665.34375 1309.44,686.90625 C1308.815,708.46875 1300.065,719.5625 1283.19,720.1875 Z M1423.815,738 L1423.815,719.71875 L1370.84625,719.71875 L1370.84625,634.40625 L1347.40875,634.40625 L1347.40875,738 L1423.815,738 Z" id="Fill-11" fill="#FFFFFE"></path>
            </g>
            <g id="5" transform="translate(1940.000000, 1100.000000)">
                <polygon id="Fill-6" fill="#272A29" points="0 1100 1920 1100 1920 0 0 0"></polygon>
                <path d="M710,925 L1210,925 L1210,675 L710,675 L710,925 Z M735,900 L1185,900 L1185,700 L735,700 L735,900 Z M1088.81,605 C1059.89,605 1029.27,594.16 1006.82,573.14 L1035.4,538.92 C1051.39,552.47 1071.8,561.96 1090.17,561.96 C1110.92,561.96 1121.13,553.83 1121.13,540.61 C1121.13,526.72 1108.54,522.31 1089.15,514.18 L1060.23,501.98 C1037.44,492.83 1015.66,473.85 1015.66,441.66 C1015.66,405.06 1048.32,375.92 1094.59,375.92 C1120.11,375.92 1146.98,386.08 1166.04,405.06 L1140.52,436.58 C1125.89,425.39 1112.28,418.95 1094.59,418.95 C1077.24,418.95 1066.35,426.41 1066.35,438.95 C1066.35,452.5 1080.98,457.25 1100.04,465.04 L1128.61,476.56 C1155.49,487.41 1172.5,505.37 1172.5,536.55 C1172.5,573.14 1141.88,605 1088.81,605 Z M985,527.4 C985,570.1 962.89,605 913.9,605 C880.22,605 857.76,591.78 842.45,565.01 L876.47,539.93 C884.64,554.85 896.21,561.96 907.43,561.96 C925.46,561.96 934.99,552.81 934.99,523.33 L934.99,379.98 L985,379.98 L985,527.4 Z M710,655 L1210,655 L1210,155 L710,155 L710,655 Z M807.15625,853.40625 C831.84375,853.40625 846.84375,841.84375 852.15625,818.71875 L852.15625,818.71875 L829.65625,811.6875 C827.46875,826.6875 819.96875,834.34375 807.15625,834.65625 C791.21875,833.09375 782.78125,821.6875 781.84375,800.4375 C782.78125,779.1875 791.21875,768.09375 807.15625,767.15625 C818.40625,767.78125 825.59375,773.40625 828.71875,784.03125 L828.71875,784.03125 L851.21875,778.875 C844.34375,758.5625 829.65625,747.9375 807.15625,747 C775.28125,748.875 758.5625,766.6875 757,800.4375 C758.5625,834.1875 775.28125,851.84375 807.15625,853.40625 Z M912.15625,853.875 C944.34375,852 961.375,834.34375 963.25,800.90625 C961.0625,766.84375 944.03125,748.875 912.15625,747 C879.34375,748.25 862.15625,766.21875 860.59375,800.90625 C862.46875,834.34375 879.65625,852 912.15625,853.875 Z M911.21875,834.1875 C894.34375,833.25 885.59375,822.15625 884.96875,800.90625 C885.90625,779.34375 894.8125,768.09375 911.6875,767.15625 C928.25,768.09375 936.84375,779.34375 937.46875,800.90625 C936.84375,822.46875 928.09375,833.5625 911.21875,834.1875 Z M1024.1875,853.875 C1056.375,852 1073.40625,834.34375 1075.28125,800.90625 C1073.09375,766.84375 1056.0625,748.875 1024.1875,747 C991.375,748.25 974.1875,766.21875 972.625,800.90625 C974.5,834.34375 991.6875,852 1024.1875,853.875 Z M1023.25,834.1875 C1006.375,833.25 997.625,822.15625 997,800.90625 C997.9375,779.34375 1006.84375,768.09375 1023.71875,767.15625 C1040.28125,768.09375 1048.875,779.34375 1049.5,800.90625 C1048.875,822.46875 1040.125,833.5625 1023.25,834.1875 Z M1163.875,852 L1163.875,833.71875 L1110.90625,833.71875 L1110.90625,748.40625 L1087.46875,748.40625 L1087.46875,852 L1163.875,852 Z" id="Fill-12" fill="#FFFFFE"></path>
            </g>
            <g id="6" transform="translate(3880.000000, 1100.000000)">
                <polygon id="Fill-7" fill="#272A29" points="0 1100 1920 1100 1920 0 0 0"></polygon>
                <path d="M845,665 L1345,665 L1345,415 L845,415 L845,665 Z M870,640 L1320,640 L1320,440 L870,440 L870,640 Z M764.4,640 C749.95,640 734.64,634.58 723.41,624.07 L737.7,606.96 C745.69,613.74 755.9,618.48 765.08,618.48 C775.46,618.48 780.561,614.41 780.561,607.81 C780.561,600.86 774.27,598.66 764.57,594.59 L750.12,588.49 C738.72,583.92 727.83,574.43 727.83,558.33 C727.83,540.03 744.16,525.46 767.3,525.46 C780.05,525.46 793.49,530.54 803.02,540.03 L790.26,555.79 C782.95,550.2 776.141,546.98 767.3,546.98 C758.621,546.98 753.18,550.71 753.18,556.97 C753.18,563.75 760.49,566.12 770.02,570.02 L784.311,575.78 C797.75,581.2 806.25,590.18 806.25,605.77 C806.25,624.07 790.94,640 764.4,640 Z M712.5,601.2 C712.5,622.55 701.44,640 676.95,640 C660.11,640 648.88,633.39 641.23,620.01 L658.24,607.47 C662.32,614.92 668.1,618.48 673.721,618.48 C682.73,618.48 687.49,613.91 687.49,599.17 L687.49,527.49 L712.5,527.49 L712.5,601.2 Z M825,415 L825,665 L575,665 L575,415 L825,415 Z M1047.15625,487 C1079.03125,488.875 1096.0625,506.84375 1098.25,540.90625 C1096.375,574.34375 1079.34375,592 1047.15625,593.875 C1014.65625,592 997.46875,574.34375 995.59375,540.90625 C997.15625,506.21875 1014.34375,488.25 1047.15625,487 Z M1159.1875,487 C1191.0625,488.875 1208.09375,506.84375 1210.28125,540.90625 C1208.40625,574.34375 1191.375,592 1159.1875,593.875 C1126.6875,592 1109.5,574.34375 1107.625,540.90625 C1109.1875,506.21875 1126.375,488.25 1159.1875,487 Z M942.15625,487 C964.65625,487.9375 979.34375,498.5625 986.21875,518.875 L986.21875,518.875 L963.71875,524.03125 L963.586191,523.591435 C960.393314,513.250965 953.25,507.772569 942.15625,507.15625 C926.21875,508.09375 917.78125,519.1875 916.84375,540.4375 C917.78125,561.6875 926.21875,573.09375 942.15625,574.65625 C954.96875,574.34375 962.46875,566.6875 964.65625,551.6875 L964.65625,551.6875 L987.15625,558.71875 L986.993969,559.409031 C981.542781,582.073844 966.596875,593.40625 942.15625,593.40625 C910.28125,591.84375 893.5625,574.1875 892,540.4375 C893.5625,506.6875 910.28125,488.875 942.15625,487 Z M1245.90625,488.40625 L1245.90625,573.71875 L1298.875,573.71875 L1298.875,592 L1222.46875,592 L1222.46875,488.40625 L1245.90625,488.40625 Z M1046.6875,507.15625 C1029.8125,508.09375 1020.90625,519.34375 1019.96875,540.90625 C1020.59375,562.15625 1029.34375,573.25 1046.21875,574.1875 C1063.09375,573.5625 1071.84375,562.46875 1072.46875,540.90625 C1071.84375,519.34375 1063.25,508.09375 1046.6875,507.15625 Z M1158.71875,507.15625 C1141.84375,508.09375 1132.9375,519.34375 1132,540.90625 C1132.625,562.15625 1141.375,573.25 1158.25,574.1875 C1175.125,573.5625 1183.875,562.46875 1184.5,540.90625 C1183.875,519.34375 1175.28125,508.09375 1158.71875,507.15625 Z" id="Fill-13" fill="#FFFFFE"></path>
            </g>
            <g id="7" transform="translate(0.000000, 2200.000000)">
                <rect id="矩形" fill="#FFFFFF" opacity="0" x="0" y="0" width="1920" height="1100"></rect>
                <path d="M970,790 L1470,790 L1470,290 L970,290 L970,790 Z M995,765 L1445,765 L1445,315 L995,315 L995,765 Z M828.808,740 C799.89,740 769.271,729.16 746.818,708.14 L775.396,673.92 C791.385,687.47 811.798,696.96 830.169,696.96 C850.922,696.96 861.128,688.83 861.128,675.61 C861.128,661.72 848.541,657.31 829.148,649.18 L800.23,636.98 C777.437,627.83 755.663,608.85 755.663,576.66 C755.663,540.06 788.323,510.92 834.592,510.92 C860.107,510.92 886.984,521.08 906.036,540.06 L880.52,571.58 C865.891,560.39 852.283,553.96 834.592,553.96 C817.241,553.96 806.354,561.41 806.354,573.95 C806.354,587.5 820.983,592.25 840.035,600.04 L868.613,611.56 C895.489,622.41 912.5,640.37 912.5,671.55 C912.5,708.14 881.881,740 828.808,740 Z M725,662.4 C725,705.1 702.886,740 653.896,740 C620.215,740 597.761,726.78 582.452,700.01 L616.473,674.93 C624.638,689.85 636.205,696.96 647.432,696.96 C665.463,696.96 674.989,687.81 674.989,658.33 L674.989,514.98 L725,514.98 L725,662.4 Z M450,790 L950,790 L950,290 L450,290 L450,790 Z M1067.15625,739.40625 C1091.84375,739.40625 1106.84375,727.84375 1112.15625,704.71875 L1112.15625,704.71875 L1089.65625,697.6875 C1087.46875,712.6875 1079.96875,720.34375 1067.15625,720.65625 C1051.21875,719.09375 1042.78125,707.6875 1041.84375,686.4375 C1042.78125,665.1875 1051.21875,654.09375 1067.15625,653.15625 C1078.40625,653.78125 1085.59375,659.40625 1088.71875,670.03125 L1088.71875,670.03125 L1111.21875,664.875 C1104.34375,644.5625 1089.65625,633.9375 1067.15625,633 C1035.28125,634.875 1018.5625,652.6875 1017,686.4375 C1018.5625,720.1875 1035.28125,737.84375 1067.15625,739.40625 Z M1172.15625,739.875 C1204.34375,738 1221.375,720.34375 1223.25,686.90625 C1221.0625,652.84375 1204.03125,634.875 1172.15625,633 C1139.34375,634.25 1122.15625,652.21875 1120.59375,686.90625 C1122.46875,720.34375 1139.65625,738 1172.15625,739.875 Z M1171.21875,720.1875 C1154.34375,719.25 1145.59375,708.15625 1144.96875,686.90625 C1145.90625,665.34375 1154.8125,654.09375 1171.6875,653.15625 C1188.25,654.09375 1196.84375,665.34375 1197.46875,686.90625 C1196.84375,708.46875 1188.09375,719.5625 1171.21875,720.1875 Z M1284.1875,739.875 C1316.375,738 1333.40625,720.34375 1335.28125,686.90625 C1333.09375,652.84375 1316.0625,634.875 1284.1875,633 C1251.375,634.25 1234.1875,652.21875 1232.625,686.90625 C1234.5,720.34375 1251.6875,738 1284.1875,739.875 Z M1283.25,720.1875 C1266.375,719.25 1257.625,708.15625 1257,686.90625 C1257.9375,665.34375 1266.84375,654.09375 1283.71875,653.15625 C1300.28125,654.09375 1308.875,665.34375 1309.5,686.90625 C1308.875,708.46875 1300.125,719.5625 1283.25,720.1875 Z M1423.875,738 L1423.875,719.71875 L1370.90625,719.71875 L1370.90625,634.40625 L1347.46875,634.40625 L1347.46875,738 L1423.875,738 Z" id="Fill-14" fill="#272A29"></path>
            </g>
            <g id="8" transform="translate(1940.000000, 2200.000000)">
                <rect id="矩形" fill-opacity="0" fill="#FFFFFF" x="0" y="0" width="1920" height="1100"></rect>
                <path d="M710,925 L1210,925 L1210,675 L710,675 L710,925 Z M735,900 L1185,900 L1185,700 L735,700 L735,900 Z M1088.81,605 C1059.89,605 1029.27,594.16 1006.82,573.14 L1035.4,538.92 C1051.39,552.47 1071.8,561.96 1090.17,561.96 C1110.92,561.96 1121.13,553.83 1121.13,540.61 C1121.13,526.72 1108.54,522.31 1089.15,514.18 L1060.23,501.98 C1037.44,492.83 1015.66,473.85 1015.66,441.66 C1015.66,405.06 1048.32,375.92 1094.59,375.92 C1120.11,375.92 1146.98,386.08 1166.04,405.06 L1140.52,436.58 C1125.89,425.39 1112.28,418.96 1094.59,418.96 C1077.24,418.96 1066.35,426.41 1066.35,438.95 C1066.35,452.5 1080.98,457.25 1100.04,465.04 L1128.61,476.56 C1155.49,487.41 1172.5,505.37 1172.5,536.55 C1172.5,573.14 1141.88,605 1088.81,605 Z M985,527.4 C985,570.1 962.89,605 913.9,605 C880.22,605 857.76,591.78 842.45,565.01 L876.47,539.93 C884.64,554.85 896.21,561.96 907.43,561.96 C925.46,561.96 934.99,552.81 934.99,523.33 L934.99,379.98 L985,379.98 L985,527.4 Z M710,655 L1210,655 L1210,155 L710,155 L710,655 Z M807.15625,853.40625 C831.84375,853.40625 846.84375,841.84375 852.15625,818.71875 L852.15625,818.71875 L829.65625,811.6875 C827.46875,826.6875 819.96875,834.34375 807.15625,834.65625 C791.21875,833.09375 782.78125,821.6875 781.84375,800.4375 C782.78125,779.1875 791.21875,768.09375 807.15625,767.15625 C818.40625,767.78125 825.59375,773.40625 828.71875,784.03125 L828.71875,784.03125 L851.21875,778.875 C844.34375,758.5625 829.65625,747.9375 807.15625,747 C775.28125,748.875 758.5625,766.6875 757,800.4375 C758.5625,834.1875 775.28125,851.84375 807.15625,853.40625 Z M912.15625,853.875 C944.34375,852 961.375,834.34375 963.25,800.90625 C961.0625,766.84375 944.03125,748.875 912.15625,747 C879.34375,748.25 862.15625,766.21875 860.59375,800.90625 C862.46875,834.34375 879.65625,852 912.15625,853.875 Z M911.21875,834.1875 C894.34375,833.25 885.59375,822.15625 884.96875,800.90625 C885.90625,779.34375 894.8125,768.09375 911.6875,767.15625 C928.25,768.09375 936.84375,779.34375 937.46875,800.90625 C936.84375,822.46875 928.09375,833.5625 911.21875,834.1875 Z M1024.1875,853.875 C1056.375,852 1073.40625,834.34375 1075.28125,800.90625 C1073.09375,766.84375 1056.0625,748.875 1024.1875,747 C991.375,748.25 974.1875,766.21875 972.625,800.90625 C974.5,834.34375 991.6875,852 1024.1875,853.875 Z M1023.25,834.1875 C1006.375,833.25 997.625,822.15625 997,800.90625 C997.9375,779.34375 1006.84375,768.09375 1023.71875,767.15625 C1040.28125,768.09375 1048.875,779.34375 1049.5,800.90625 C1048.875,822.46875 1040.125,833.5625 1023.25,834.1875 Z M1163.875,852 L1163.875,833.71875 L1110.90625,833.71875 L1110.90625,748.40625 L1087.46875,748.40625 L1087.46875,852 L1163.875,852 Z" id="Fill-15" fill="#272A29"></path>
            </g>
            <g id="9" transform="translate(3880.000000, 2200.000000)">
                <rect id="矩形" fill="#FFFFFF" opacity="0" x="0" y="0" width="1920" height="1100"></rect>
                <path d="M845,665 L1345,665 L1345,415 L845,415 L845,665 Z M870,640 L1320,640 L1320,440 L870,440 L870,640 Z M764.4,640 C749.95,640 734.64,634.58 723.41,624.07 L737.7,606.96 C745.69,613.74 755.9,618.48 765.08,618.48 C775.46,618.48 780.561,614.41 780.561,607.81 C780.561,600.86 774.27,598.66 764.57,594.59 L750.12,588.49 C738.72,583.92 727.83,574.43 727.83,558.33 C727.83,540.03 744.16,525.46 767.3,525.46 C780.05,525.46 793.49,530.54 803.02,540.03 L790.26,555.79 C782.95,550.2 776.141,546.98 767.3,546.98 C758.621,546.98 753.18,550.71 753.18,556.97 C753.18,563.75 760.49,566.12 770.02,570.02 L784.311,575.78 C797.75,581.2 806.25,590.18 806.25,605.77 C806.25,624.07 790.94,640 764.4,640 Z M712.5,601.2 C712.5,622.55 701.44,640 676.95,640 C660.11,640 648.88,633.39 641.23,620.01 L658.24,607.47 C662.32,614.92 668.1,618.48 673.721,618.48 C682.73,618.48 687.49,613.91 687.49,599.17 L687.49,527.49 L712.5,527.49 L712.5,601.2 Z M575,665 L825,665 L825,415 L575,415 L575,665 Z M942.15625,593.40625 C966.84375,593.40625 981.84375,581.84375 987.15625,558.71875 L987.15625,558.71875 L964.65625,551.6875 C962.46875,566.6875 954.96875,574.34375 942.15625,574.65625 C926.21875,573.09375 917.78125,561.6875 916.84375,540.4375 C917.78125,519.1875 926.21875,508.09375 942.15625,507.15625 C953.40625,507.78125 960.59375,513.40625 963.71875,524.03125 L963.71875,524.03125 L986.21875,518.875 C979.34375,498.5625 964.65625,487.9375 942.15625,487 C910.28125,488.875 893.5625,506.6875 892,540.4375 C893.5625,574.1875 910.28125,591.84375 942.15625,593.40625 Z M1047.15625,593.875 C1079.34375,592 1096.375,574.34375 1098.25,540.90625 C1096.0625,506.84375 1079.03125,488.875 1047.15625,487 C1014.34375,488.25 997.15625,506.21875 995.59375,540.90625 C997.46875,574.34375 1014.65625,592 1047.15625,593.875 Z M1046.21875,574.1875 C1029.34375,573.25 1020.59375,562.15625 1019.96875,540.90625 C1020.90625,519.34375 1029.8125,508.09375 1046.6875,507.15625 C1063.25,508.09375 1071.84375,519.34375 1072.46875,540.90625 C1071.84375,562.46875 1063.09375,573.5625 1046.21875,574.1875 Z M1159.1875,593.875 C1191.375,592 1208.40625,574.34375 1210.28125,540.90625 C1208.09375,506.84375 1191.0625,488.875 1159.1875,487 C1126.375,488.25 1109.1875,506.21875 1107.625,540.90625 C1109.5,574.34375 1126.6875,592 1159.1875,593.875 Z M1158.25,574.1875 C1141.375,573.25 1132.625,562.15625 1132,540.90625 C1132.9375,519.34375 1141.84375,508.09375 1158.71875,507.15625 C1175.28125,508.09375 1183.875,519.34375 1184.5,540.90625 C1183.875,562.46875 1175.125,573.5625 1158.25,574.1875 Z M1298.875,592 L1298.875,573.71875 L1245.90625,573.71875 L1245.90625,488.40625 L1222.46875,488.40625 L1222.46875,592 L1298.875,592 Z" id="Fill-16" fill="#272A29"></path>
            </g>
        </g>
    </g>
</svg>